<?xml version="1.0" encoding="utf-8"?>
<!-- Generator: Adobe Illustrator 19.1.0, SVG Export Plug-In . SVG Version: 6.00 Build 0)  -->
<!DOCTYPE svg PUBLIC "-//W3C//DTD SVG 1.1//EN" "http://www.w3.org/Graphics/SVG/1.1/DTD/svg11.dtd">
<svg version="1.1" id="Layer_1" xmlns="http://www.w3.org/2000/svg" xmlns:xlink="http://www.w3.org/1999/xlink" x="0px" y="0px"
	 viewBox="0 0 90 90" enable-background="new 0 0 90 90" xml:space="preserve">
<g>
	<path fill="#2BBEE0" d="M70.9,59.4c0.2-0.2,0.4-0.3,0.5-0.5c6.3-6.6,10.2-15.5,10.2-25.4c0-0.5,0-0.9,0-1.4l-4.5,5.2
		c-0.5,4.1-1.7,8-3.6,11.5c-0.1,0.2-0.2,0.3-0.3,0.5C69,56.9,61.7,62.6,53,64.8l0,0c-1.1,0.3-2.2,0.5-3.4,0.7l2.6-22.9l11.9,3.2
		l22.1-21.3l-22.1,5.2l-14.6-2.9l0.1-0.1l-4.5-7.3l-4.5,7.3l0.1,0.1l-14.7,2.9L3.8,24.4l22,22.3L38,42.6l2.6,22.9
		c-1.4-0.2-2.9-0.5-4.2-0.9c-0.1,0-0.2-0.1-0.4-0.1c-8.4-2.6-15.4-8.5-19.4-16c-1.6-3.2-2.8-6.7-3.3-10.3l-4.6-5.4c0,0.3,0,0.7,0,1
		c0,5.1,1,10.4,2.9,14.4h0c0,0,0.1,0.1,0.1,0.2c0.2,0.5,0.4,0.9,0.6,1.3c4.2,8.7,11.5,15.2,20.4,18.3c0.3,0.1,0.7,0.2,1,0.3
		c0.3,0.1,0.6,0.2,0.8,0.3c0.9,0.3,1.9,0.5,2.8,0.7l0,0c2.5,0.5,5.1,0.8,7.7,0.8c2.6,0,5.2-0.3,7.7-0.8l0,0c1.7-0.4,3.4-0.9,5-1.5
		c4.6-1.7,8.8-4.3,12.3-7.6C70.4,59.9,70.6,59.7,70.9,59.4z"/>
</g>
</svg>
